<svg width="21" height="20" viewBox="0 0 21 20" fill="none" xmlns="http://www.w3.org/2000/svg">
<g clip-path="url(#clip0_552_23)">
<path d="M5.86263 0H3.36263C2.47858 0 1.63073 0.35119 1.00561 0.976311C0.380486 1.60143 0.0292969 2.44928 0.0292969 3.33333L0.0292969 5.83333C0.0292969 6.71739 0.380486 7.56524 1.00561 8.19036C1.63073 8.81548 2.47858 9.16667 3.36263 9.16667H5.86263C6.74669 9.16667 7.59453 8.81548 8.21965 8.19036C8.84477 7.56524 9.19596 6.71739 9.19596 5.83333V3.33333C9.19596 2.44928 8.84477 1.60143 8.21965 0.976311C7.59453 0.35119 6.74669 0 5.86263 0ZM7.5293 5.83333C7.5293 6.27536 7.3537 6.69928 7.04114 7.01184C6.72858 7.32441 6.30466 7.5 5.86263 7.5H3.36263C2.9206 7.5 2.49668 7.32441 2.18412 7.01184C1.87156 6.69928 1.69596 6.27536 1.69596 5.83333V3.33333C1.69596 2.89131 1.87156 2.46738 2.18412 2.15482C2.49668 1.84226 2.9206 1.66667 3.36263 1.66667H5.86263C6.30466 1.66667 6.72858 1.84226 7.04114 2.15482C7.3537 2.46738 7.5293 2.89131 7.5293 3.33333V5.83333Z" fill="white"/>
<path d="M16.6959 0H14.1959C13.3118 0 12.464 0.35119 11.8389 0.976311C11.2137 1.60143 10.8625 2.44928 10.8625 3.33333V5.83333C10.8625 6.71739 11.2137 7.56524 11.8389 8.19036C12.464 8.81548 13.3118 9.16667 14.1959 9.16667H16.6959C17.5799 9.16667 18.4278 8.81548 19.0529 8.19036C19.678 7.56524 20.0292 6.71739 20.0292 5.83333V3.33333C20.0292 2.44928 19.678 1.60143 19.0529 0.976311C18.4278 0.35119 17.5799 0 16.6959 0ZM18.3625 5.83333C18.3625 6.27536 18.187 6.69928 17.8744 7.01184C17.5618 7.32441 17.1379 7.5 16.6959 7.5H14.1959C13.7539 7.5 13.3299 7.32441 13.0174 7.01184C12.7048 6.69928 12.5292 6.27536 12.5292 5.83333V3.33333C12.5292 2.89131 12.7048 2.46738 13.0174 2.15482C13.3299 1.84226 13.7539 1.66667 14.1959 1.66667H16.6959C17.1379 1.66667 17.5618 1.84226 17.8744 2.15482C18.187 2.46738 18.3625 2.89131 18.3625 3.33333V5.83333Z" fill="white"/>
<path d="M5.86263 10.8333H3.36263C2.47858 10.8333 1.63073 11.1845 1.00561 11.8096C0.380486 12.4348 0.0292969 13.2826 0.0292969 14.1667L0.0292969 16.6667C0.0292969 17.5507 0.380486 18.3986 1.00561 19.0237C1.63073 19.6488 2.47858 20 3.36263 20H5.86263C6.74669 20 7.59453 19.6488 8.21965 19.0237C8.84477 18.3986 9.19596 17.5507 9.19596 16.6667V14.1667C9.19596 13.2826 8.84477 12.4348 8.21965 11.8096C7.59453 11.1845 6.74669 10.8333 5.86263 10.8333ZM7.5293 16.6667C7.5293 17.1087 7.3537 17.5326 7.04114 17.8452C6.72858 18.1577 6.30466 18.3333 5.86263 18.3333H3.36263C2.9206 18.3333 2.49668 18.1577 2.18412 17.8452C1.87156 17.5326 1.69596 17.1087 1.69596 16.6667V14.1667C1.69596 13.7246 1.87156 13.3007 2.18412 12.9882C2.49668 12.6756 2.9206 12.5 3.36263 12.5H5.86263C6.30466 12.5 6.72858 12.6756 7.04114 12.9882C7.3537 13.3007 7.5293 13.7246 7.5293 14.1667V16.6667Z" fill="white"/>
<path d="M16.6959 10.8333H14.1959C13.3118 10.8333 12.464 11.1845 11.8389 11.8096C11.2137 12.4348 10.8625 13.2826 10.8625 14.1667V16.6667C10.8625 17.5507 11.2137 18.3986 11.8389 19.0237C12.464 19.6488 13.3118 20 14.1959 20H16.6959C17.5799 20 18.4278 19.6488 19.0529 19.0237C19.678 18.3986 20.0292 17.5507 20.0292 16.6667V14.1667C20.0292 13.2826 19.678 12.4348 19.0529 11.8096C18.4278 11.1845 17.5799 10.8333 16.6959 10.8333ZM18.3625 16.6667C18.3625 17.1087 18.187 17.5326 17.8744 17.8452C17.5618 18.1577 17.1379 18.3333 16.6959 18.3333H14.1959C13.7539 18.3333 13.3299 18.1577 13.0174 17.8452C12.7048 17.5326 12.5292 17.1087 12.5292 16.6667V14.1667C12.5292 13.7246 12.7048 13.3007 13.0174 12.9882C13.3299 12.6756 13.7539 12.5 14.1959 12.5H16.6959C17.1379 12.5 17.5618 12.6756 17.8744 12.9882C18.187 13.3007 18.3625 13.7246 18.3625 14.1667V16.6667Z" fill="white"/>
</g>
<defs>
<clipPath id="clip0_552_23">
<rect width="20" height="20" fill="white" transform="translate(0.0292969)"/>
</clipPath>
</defs>
</svg>
